Semi-Bold.sfdir
StartChar: exclam
Encoding: 33 33 16
Width: 270
VWidth: 0
Flags: MW
HStem: -13 112<86.538 173.462>
VStem: 85 100<544.1 654>
LayerCount: 2
Fore
SplineSet
85 654 m 0
 85 654 125 660 150 660 c 27
 175 660 185 632 185 607 c 27
 185 444 167 352 156 189 c 17
 139 184 139 177 126 177 c 27
 121 177 118 179 115 183 c 1
 85 654 l 0
EndSplineSet
Refer: 4 46 N 1 0 0 1 5 0 2
Validated: 1
EndChar
StartChar: numbersign
Encoding: 35 35 84
Width: 530
VWidth: 0
Flags: W
HStem: -5 21G<124.715 127 274.603 282> 118 64<50 149 202 299> 288 64<94.4448 189 240 337> 465 20G<264 265.455 409 410.938>
DStem2: 120 -5 160 0 0.230716 0.973021<7.06177 126.372 201.847 301.015 376.027 504.683> 270 -5 315 0 0.221187 0.975232<13.6894 129.294 205.824 303.488 379.355 422.841 447.538 504.271>
LayerCount: 2
Fore
SplineSet
160 0 m 1
 149 -6 134 -4 120 -5 c 1
 149 118 l 1
 30 115 l 1
 36 137 39 158 50 180 c 1
 164 182 l 1
 189 288 l 5
 75 285 l 5
 81 307 83 330 95 350 c 1
 205 352 l 1
 235 480 l 1
 245 484 258 484 270 485 c 1
 240 353 l 1
 352 356 l 1
 380 480 l 1
 390 486 403 484 415 485 c 1
 389 357 l 1
 500 360 l 1
 497 338 496 312 490 295 c 5
 375 292 l 5
 354 187 l 1
 475 190 l 1
 471 168 476 147 465 125 c 1
 340 122 l 1
 315 0 l 1
 301 -2 294 -3 270 -5 c 1
 299 121 l 1
 187 118 l 1
 160 0 l 1
337 291 m 5
 225 288 l 5
 202 183 l 1
 313 186 l 1
 337 291 l 5
EndSplineSet
EndChar
StartChar: percent
Encoding: 37 37 93
Width: 695
VWidth: 0
Flags: MW
HStem: -10 39<472.583 567.677> 236 39<471.914 566.472> 325 39<132.583 227.677> 571 39<131.914 226.694>
VStem: 30 77<389.665 534.09> 248 77<387.904 542.912> 370 77<54.665 199.09> 588 77<52.9035 207.912>
DStem2: 110 -5 175 0 0.551514 0.834165<29.5024 734.741>
LayerCount: 2
Fore
SplineSet
518 236 m 3
 461 236 447 181 447 133 c 3
 447 93 460 29 517 29 c 3
 581 29 588 78 588 133 c 3
 588 176 585 236 518 236 c 3
370 127 m 3
 370 206 446 275 520 275 c 3
 608 275 665 204 665 139 c 3
 665 39 602 -10 514 -10 c 3
 406 -10 370 80 370 127 c 3
178 571 m 3
 121 571 107 516 107 468 c 3
 107 428 120 364 177 364 c 3
 241 364 248 413 248 468 c 3
 248 511 246 571 178 571 c 3
30 462 m 3
 30 541 106 610 180 610 c 3
 268 610 325 539 325 474 c 3
 325 374 262 325 174 325 c 3
 66 325 30 415 30 462 c 3
175 0 m 5
 156 -2 135 -4 110 -5 c 5
 253 210 379 380 510 600 c 5
 533 601 554 603 575 605 c 5
 433 376 309 204 175 0 c 5
EndSplineSet
Validated: 1
EndChar
StartChar: ampersand
Encoding: 38 38 168
Width: 730
VWidth: 0
Flags: W
HStem: -10 69<189.836 349.042> 0 39<602.376 680.837> 394 26<559.517 600.874> 630 30<251.115 329.111>
VStem: 25 97<127.751 264.808> 145 80<492.184 598.425> 365 60<488.311 603.974>
DStem2: 310 415 235 380 0.595706 -0.803203<0 296.214>
LayerCount: 2
Fore
SplineSet
641 368 m 2xbe
 641 368 558 200 511 145 c 9
 511 145 596 39 648 39 c 3
 676 39 710 65 710 65 c 25
 710 38 l 25
 710 38 661 0 621 0 c 3x7e
 541 0 501 45 459 90 c 1
 401 24 330 -10 225 -10 c 3
 113 -10 25 64 25 180 c 3
 25 317 178 387 214 405 c 9
 214 405 145 483 145 540 c 3
 145 607 223 660 290 660 c 3
 388 660 425 603 425 550 c 3
 425 477 338 427 310 415 c 1
 378 324 459 214 485 176 c 1
 524 217 611 368 611 368 c 3
 611 387 568 389 563 394 c 1
 560 397 559 394 559 420 c 1
 710 420 l 1
 710 407 708 404 704 400 c 1
 691 387 650 389 641 368 c 2xbe
235 380 m 1
 207 365 122 317 122 210 c 3
 122 101 205 59 265 59 c 3xbe
 326 59 387 75 434 125 c 1
 397 174 322 278 235 380 c 1
225 550 m 3
 225 514 263 464 290 440 c 1
 330 462 365 491 365 550 c 3
 365 592 328 630 290 630 c 3
 238 630 225 579 225 550 c 3
EndSplineSet
Validated: 1
EndChar
StartChar: parenleft
Encoding: 40 40 79
Width: 315
VWidth: 0
Flags: W
VStem: 35 84<165.742 432.509>
LayerCount: 2
Fore
SplineSet
285 730 m 9
 305 696 l 17
 202 613 119 471 119 307 c 3
 119 146 192 -10 305 -106 c 9
 275 -140 l 17
 206 -95 35 88.9130859375 35 297 c 7
 35 492.576171875 156 627 285 730 c 9
EndSplineSet
EndChar
StartChar: parenright
Encoding: 41 41 80
Width: 315
VWidth: 0
Flags: W
VStem: 196 84<165.76 432.598>
LayerCount: 2
Fore
SplineSet
30 730 m 17
 159 627 280 493 280 297 c 7
 280 89 109 -95 40 -140 c 9
 10 -106 l 17
 123 -10 196 146 196 307 c 3
 196 471 113 613 10 696 c 9
 30 730 l 17
EndSplineSet
EndChar
StartChar: plus
Encoding: 43 43 72
Width: 420
VWidth: 0
Flags: W
HStem: 203 50<69.7244 191 242 355.287>
VStem: 192 50<75 203 253 375.449>
LayerCount: 2
Fore
SplineSet
241 203 m 1
 240 161 240 120 240 75 c 1
 225 75 210 75 190 70 c 1
 190 117 190 160 191 203 c 1
 149 202 106 201 60 200 c 1
 66 216 67 232 70 250 c 1
 112 252 152 252 192 253 c 1
 193 292 194 332 195 375 c 1
 216 380 228 378 245 380 c 1
 244 336 243 294 242 253 c 1
 282 253 323 254 365 255 c 1
 363 237 358 223 355 205 c 1
 316 204 278 203 241 203 c 1
EndSplineSet
Validated: 1
EndChar
StartChar: comma
Encoding: 44 44 63
Width: 270
VWidth: 0
Flags: W
HStem: -131 220
VStem: 121 79<-30.6354 58.1369>
LayerCount: 2
Fore
SplineSet
100 36 m 3
 100 64 154 89 167 89 c 3
 178 89 200 62 200 29 c 3
 200 -29 120 -103 92 -127 c 9
 60 -131 l 17
 61 -118 121 -25 121 -12 c 3
 121 8 100 20 100 36 c 3
EndSplineSet
Validated: 1
EndChar
StartChar: hyphen
Encoding: 45 45 70
AltUni2: 002212.ffffffff.0
Width: 380
VWidth: 0
Flags: W
HStem: 200 55<79.73 300.416>
VStem: 70 240
LayerCount: 2
Fore
SplineSet
300 205 m 1
 216.666015625 204.657226562 153.332527521 205.103330608 70 200 c 1
 76.1967865652 216.234051478 77.0574088073 236.380202101 80 255 c 1
 161.339304218 258.700576364 226.188476562 258.8203125 310 260 c 1
 306.775390625 241.26953125 304.504882812 219.0390625 300 205 c 1
EndSplineSet
Validated: 1
EndChar
StartChar: slash
Encoding: 47 47 81
Width: 325
VWidth: 0
Flags: MW
HStem: 680 20G<202.5 238>
VStem: 30 65<-53.3686 0.846161>
DStem2: 30 -50 95 -70 0.257663 0.966235<-2.7019 0>
LayerCount: 2
Fore
SplineSet
95 -70 m 1
 72 -65 48 -61 30 -50 c 1
 102 198 175 446 230 700 c 1
 246 692 268 685 295 680 c 1
 234 433 165 182 95 -70 c 1
EndSplineSet
Validated: 1
EndChar
StartChar: seven
Encoding: 55 55 62
Width: 436
VWidth: 0
Flags: W
HStem: 407 73<93.741 317>
VStem: 25 28<319.934 352.621>
LayerCount: 2
Fore
SplineSet
125 -160 m 17
 214 -10 236 195 317 407 c 1
 153 407 l 2
 107 407 70 376 53 319 c 1
 48 319 34 318 25 322 c 1
 51 462 l 1
 70 471 97 480 141 480 c 2
 421 480 l 1
 292 205 243 -49 223 -160 c 9
 125 -160 l 17
EndSplineSet
Validated: 1
EndChar
StartChar: less
Encoding: 60 60 88
Width: 390
VWidth: 0
Flags: W
VStem: 50 110.11<184.341 238.655>
LayerCount: 2
Fore
SplineSet
330 56 m 1
 310 20 l 1
 310 20 50 181 50 210 c 3
 50 244.131835938 300 410 300 410 c 1
 320 374 l 1
 320 374 160.110351562 241 160.110351562 210 c 3
 160.110351562 185 330 56 330 56 c 1
EndSplineSet
Validated: 1
EndChar
StartChar: greater
Encoding: 62 62 87
Width: 395
VWidth: 0
Flags: W
VStem: 235 110<184.341 238.632>
LayerCount: 2
Fore
SplineSet
65 56 m 1
 65 56 235 185 235 210 c 3
 235 241 75 374 75 374 c 1
 95 410 l 1
 95 410 345 244 345 210 c 3
 345 181 85 20 85 20 c 1
 65 56 l 1
EndSplineSet
Validated: 1
EndChar
StartChar: question
Encoding: 63 63 67
Width: 439
VWidth: 0
Flags: MW
HStem: -13 112<156.538 243.462> 613 47<132.423 274.78>
VStem: 55 27<513.795 544.865> 145 110<-1.89597 87.896> 296 103<484.231 592.227>
LayerCount: 2
Fore
SplineSet
187 280 m 3
 187 261 210 217 230 217 c 9
 176 159 l 17
 168 186 130 231 130 256 c 3
 130 273 296 453 296 530 c 3
 296 569 284 613 206 613 c 3
 131 613 99 569 82 512 c 1
 77 512 64 512 55 516 c 1
 81 631 l 1
 100 640 133 660 230 660 c 3
 308 660 399 625 399 542 c 3
 399 452 187 298 187 280 c 3
EndSplineSet
Refer: 4 46 N 1 0 0 1 75 0 2
Validated: 1
EndChar
StartChar: B
Encoding: 66 66 36
Width: 595
VWidth: 0
Flags: MW
HStem: 0 47<198.16 400.325> 318 40<198 353.586> 603 47<198.271 356.047>
VStem: 105 93<48.9721 318 358 601.028> 462 98<99.9127 243.712>
LayerCount: 2
Fore
SplineSet
297 47 m 2
 449 47 462 133 462 170 c 3
 462 239.180664062 408 318 290 318 c 2
 198 318 l 1
 198 71 l 2
 198 53 223 47 230 47 c 2
 297 47 l 2
317 0 m 2
 152 0 l 2
 114 0 72 0 45 -4 c 1
 45 8 47 14 51 18 c 0
 63 30 105 36 105 57 c 2
 105 593 l 2
 105 614 63 620 51 632 c 0
 47 636 45 642 45 654 c 1
 72 650 115 650 152 650 c 2
 298 650 l 2
 446 650 520 565 520 502 c 3
 520 409 447 352 379 344 c 1
 478 337 560 278 560 182 c 3
 560 84 481 0 317 0 c 2
281 603 m 2
 229 603 l 2
 222 603 198 597 198 578 c 2
 198 358 l 1
 266 358 l 2
 366 358 424 416 424 479 c 3
 424 543 363 603 281 603 c 2
EndSplineSet
Validated: 1
EndChar
StartChar: F
Encoding: 70 70 37
Width: 600
VWidth: 0
Flags: W
HStem: -4 28<207.249 281.182> 307 48<198 405.718> 402 20G<443 456.436> 603 47<198.271 490.211>
VStem: 105 93<34.6965 307 355 601.028> 418 16<233 265.421>
LayerCount: 2
Fore
SplineSet
229 603 m 2
 222 603 198 597 198 578 c 2
 198 355 l 1
 384 355 l 2
 428 355 415 385 443 416 c 1
 459 422 l 1
 434 227 l 1
 418 233 l 1
 405 257 416 307 382 307 c 2
 198 307 l 1
 198 47 l 2
 198 29 273 29 278 24 c 0
 281 21 282 19 282 -4 c 1
 260 -1 183 0 146 0 c 3
 109 0 72 -1 45 -4 c 1
 45 8 47 14 51 18 c 0
 63 30 105 36 105 57 c 2
 105 593 l 2
 105 614 63 620 51 632 c 0
 47 636 45 642 45 654 c 1
 72 650 115 650 152 650 c 2
 560 650 l 1
 535 512 l 1
 517 518 l 1
 517 518 512 603 436 603 c 2
 229 603 l 2
EndSplineSet
Validated: 1
EndChar
StartChar: G
Encoding: 71 71 34
Width: 695
VWidth: 0
Flags: W
HStem: -10 42<319.814 504.228> 276 33<399 481.459 614.851 662> 485 21G<566 585.906> 619 41<281.422 488.01>
VStem: 50 106<188.517 445.804> 508 93<36.5551 256.482>
LayerCount: 2
Fore
SplineSet
665 309 m 25
 662 276 l 17
 619 276 602 268 601 185 c 10
 601 26 l 17
 553 2 505 -10 384 -10 c 3
 178 -10 50 120 50 313 c 3
 50 523 191 660 372 660 c 3
 472 660 540 638 607 613 c 1
 582 485 l 5
 566 491 l 5
 542 564 l 1
 488 615 423 619 360 619 c 3
 235 619 156 501 156 337 c 3
 156 176 208 32 457 32 c 3
 480 32 508 38 508 68 c 2
 508 185 l 2
 508 268 469 276 399 276 c 9
 397 309 l 17
 665 309 l 25
EndSplineSet
Validated: 1
EndChar
StartChar: H
Encoding: 72 72 40
Width: 757
VWidth: 0
Flags: W
HStem: -4 21G<35 48.5 260.5 271 486 499.5 711.5 722> 307 48<199 557> 630 20G<35 271 486 722>
VStem: 106 93<39.8081 307 355 610.175> 557 93<39.8081 307 355 610.192>
LayerCount: 2
Fore
SplineSet
722 650 m 1
 722 626 721 628 719 626 c 0
 714 621 650 611 650 593 c 2
 650 57 l 2
 650 39 714 29 719 24 c 0
 721 22 722 20 722 -4 c 1
 701 0 641 0 604 0 c 3
 567 0 513 0 486 -4 c 1
 486 8 488 14 492 18 c 0
 504 30 557 36 557 57 c 2
 557 307 l 1
 199 307 l 1
 199 57 l 2
 199 39 262 29 267 24 c 0
 269 22 271 20 271 -4 c 1
 250 0 184 0 147 0 c 3
 110 0 62 0 35 -4 c 1
 35 8 37 14 41 18 c 0
 53 30 106 36 106 57 c 2
 106 593 l 2
 106 614 53 620 41 632 c 0
 37 636 35 638 35 650 c 1
 271 650 l 1
 271 626 269 628 267 626 c 0
 262 621 199 610 199 593 c 2
 199 355 l 1
 557 355 l 1
 557 593 l 2
 557 614 504 620 492 632 c 0
 488 636 486 638 486 650 c 1
 722 650 l 1
EndSplineSet
Validated: 1
EndChar
StartChar: J
Encoding: 74 74 47
Width: 326
VWidth: 0
Flags: W
HStem: -270 71<-25 85.4527> 630 20G<66 301>
VStem: 137 92<-73.4711 610.192>
LayerCount: 2
Fore
SplineSet
301 650 m 5
 301 626 299 628 297 626 c 4
 292 621 229 611 229 593 c 14
 229 97 l 22
 229 -155 125 -270 -5 -270 c 7
 -45 -270 -95 -242 -95 -222 c 7
 -95 -172 -34 -157 -17 -157 c 5
 -17 -169 35 -199 66 -199 c 7
 128 -199 137 -167 137 168 c 14
 137 593 l 22
 137 614 84 620 72 632 c 4
 68 636 66 638 66 650 c 5
 301 650 l 5
EndSplineSet
Validated: 1
EndChar
StartChar: K
Encoding: 75 75 57
Width: 667
VWidth: 0
Flags: W
HStem: -4 22G<45 58.5 269.5 280 415 425.5 628.5 642> 630 20G<45 280 379 590>
VStem: 116 92<39.8081 237 336 610.192>
DStem2: 208 336 270 306 0.657905 0.753101<0 18.1971 107.281 346.74> 331 371 270 306 0.621024 -0.783792<13.064 334.323>
LayerCount: 2
Fore
SplineSet
590 650 m 1
 590 638 588 636 584 632 c 0
 572 620 533 609 519 593 c 2
 331 371 l 1
 579 58 l 2
 593 42 634 30 646 18 c 0
 650 14 652 9 652 -3 c 1
 628 0 579 0 523 0 c 3
 481 0 429 0 415 -3 c 1
 415 21 417 22 419 24 c 0
 424 29 463 36 463 58 c 3
 270 306 l 1
 208 237 l 1
 208 57 l 2
 208 39 271 29 276 24 c 0
 278 22 280 20 280 -4 c 1
 259 0 200 0 163 0 c 3
 126 0 72 0 45 -4 c 1
 45 8 47 14 51 18 c 0
 63 30 116 36 116 57 c 2
 116 593 l 2
 116 614 63 620 51 632 c 0
 47 636 45 638 45 650 c 1
 280 650 l 1
 280 626 278 628 276 626 c 0
 271 621 208 611 208 593 c 2
 208 336 l 1
 428 593 l 3
 428 611 377 621 372 626 c 0
 370 628 369 626 369 650 c 1
 590 650 l 1
EndSplineSet
Validated: 1
EndChar
StartChar: L
Encoding: 76 76 38
Width: 555
VWidth: 0
Flags: W
HStem: 0 47<205.436 457.875> 630 20G<45 258>
VStem: 105 93<54.1436 611.995>
LayerCount: 2
Fore
SplineSet
258 650 m 1
 258 626 257 628 255 626 c 0
 250 621 198 611 198 593 c 2
 198 130 l 2
 198 49 208 47 289 47 c 2
 404 47 l 2
 488 47 522 176 522 176 c 5
 540 170 l 5
 517 0 l 1
 152 0 l 2
 114 0 72 0 45 -4 c 1
 45 8 47 14 51 18 c 0
 63 30 105 36 105 57 c 2
 105 593 l 2
 105 614 63 620 51 632 c 0
 47 636 45 638 45 650 c 1
 258 650 l 1
EndSplineSet
Validated: 1
EndChar
StartChar: M
Encoding: 77 77 56
Width: 845
VWidth: 0
Flags: W
HStem: -4 21G<25 38.5 210.5 221 575 588.5 809.5 820> 630 20G<25 200 644.5 819>
VStem: 95 54<39.8081 478> 646 101<39.9868 490>
LayerCount: 2
Fore
SplineSet
691 650 m 1
 819 650 l 1
 819 626 817 628 815 626 c 0
 810 621 747 610 747 593 c 2
 747 57 l 2
 747 39 811 29 816 24 c 0
 818 22 820 20 820 -4 c 1
 799 0 758 0 721 0 c 3
 684 0 602 0 575 -4 c 1
 575 8 577 14 581 18 c 0
 593 30 646 35 646 57 c 2
 646 490 l 1
 575 349 475 192 393 48 c 1
 354 128 233 346 149 478 c 1
 149 57 l 2
 149 39 213 29 218 24 c 0
 220 22 221 20 221 -4 c 1
 200 0 144 0 107 0 c 3
 70 0 52 0 25 -4 c 1
 25 8 26 14 30 18 c 0
 42 30 95 36 95 57 c 2
 95 587 l 2
 95 612 43 617 31 629 c 0
 27 633 25 638 25 650 c 1
 155 650 l 1
 245 497 377 289 423 202 c 1
 512 360 598 491 691 650 c 1
EndSplineSet
Validated: 1
EndChar
StartChar: O
Encoding: 79 79 31
Width: 719
VWidth: 0
Flags: W
HStem: -10 42<285.148 465.367> 619 41<260.866 435.626>
VStem: 35 103<202.589 449.026> 581 103<186.044 448.246>
LayerCount: 2
Fore
SplineSet
339 619 m 3
 214 619 138 501 138 337 c 3
 138 176 213 32 380 32 c 3
 498 32 581 124 581 301 c 3
 581 436 535 619 339 619 c 3
35 313 m 3
 35 523 170 660 351 660 c 3
 570 660 684 494 684 325 c 3
 684 85 530 -10 369 -10 c 3
 163 -10 35 120 35 313 c 3
EndSplineSet
Validated: 1
EndChar
StartChar: U
Encoding: 85 85 49
Width: 731
VWidth: 0
Flags: W
HStem: -10 47<285.553 478.064> 630 20G<35 275 514 701>
VStem: 106 98<133.405 610.192> 585 57<151.156 610.61>
LayerCount: 2
Fore
SplineSet
701 650 m 1
 701 638 700 636 696 632 c 1
 684 620 642 614 642 593 c 10
 642 260 l 18
 642 102 564 -10 358 -10 c 3
 189 -10 106 89 106 260 c 10
 106 593 l 18
 106 611 43 621 38 626 c 1
 36 628 35 626 35 650 c 1
 275 650 l 1
 275 638 273 636 269 632 c 1
 257 620 204 614 204 593 c 10
 204 260 l 18
 204 116 249 37 383 37 c 3
 518 37 585 135 585 260 c 14
 585 593 l 22
 585 611 523 621 518 626 c 5
 516 628 514 626 514 650 c 5
 701 650 l 1
EndSplineSet
Validated: 1
EndChar
StartChar: W
Encoding: 87 87 52
Width: 987
VWidth: 0
Flags: W
HStem: -10 21G<343.5 359.5 662.5 678.5> 630 20G<5 254 348 597 780 982>
DStem2: 183 593 76 593 0.361612 -0.932329<-14.3418 516.851> 367 110 386 0 0.355168 0.934802<0 255.866> 526 593 419 593 0.32815 -0.944626<-15.1033 157.483 244.459 499.312> 686 120 705 0 0.32957 0.944131<0 510.266>
LayerCount: 2
Fore
SplineSet
982 650 m 1
 982 638 981 636 977 632 c 0
 965 620 919 613 912 593 c 2
 705 0 l 2
 702 -10 685 -10 672 -10 c 3
 653 -10 628 -10 625 0 c 2
 511 329 l 1
 386 0 l 2
 383 -9 366 -10 353 -10 c 3
 334 -10 308 -10 306 0 c 2
 76 593 l 2
 70 610 13 621 8 626 c 0
 6 628 5 626 5 650 c 1
 254 650 l 1
 254 638 252 636 248 632 c 0
 236 620 183 623 183 593 c 3
 367 110 l 1
 482 411 l 1
 419 593 l 2
 413 610 356 621 351 626 c 0
 349 628 348 626 348 650 c 1
 597 650 l 1
 597 638 595 636 591 632 c 0
 579 620 526 623 526 593 c 3
 686 120 l 1
 851 593 l 3
 851 611 789 621 784 626 c 0
 782 628 780 626 780 650 c 1
 982 650 l 1
EndSplineSet
Validated: 1
EndChar
StartChar: X
Encoding: 88 88 54
Width: 658
VWidth: 0
Flags: W
HStem: -4 21G<5 18.5 209.5 220 446 459.5 634.5 653> 624 26<30.5174 78.3395>
DStem2: 88 57 148 57 0.625759 0.780016<36.0627 321.469 429.635 691.455> 215 588 102 598 0.577808 -0.816173<-14.2015 242.019 315.756 600.747>
LayerCount: 2
Fore
SplineSet
594 61 m 18
 615 31 633 33 646 20 c 1
 650 16 653 9 653 -4 c 1
 616 0 599 0 557 0 c 3
 520 0 473 0 446 -4 c 1
 446 8 448 14 452 18 c 0
 464 30 485 37 485 57 c 3
 325 279 l 25
 148 57 l 19
 148 40 211 29 216 24 c 0
 218 22 220 20 220 -4 c 1
 199 0 160 0 123 0 c 3
 86 0 32 0 5 -4 c 1
 5 8 7 14 11 18 c 0
 23 30 75 40 88 57 c 10
 297 322 l 25
 102 598 l 18
 91 613 39 619 34 624 c 1
 31 627 30 624 30 650 c 1
 250 650 l 1
 250 637 247 634 243 630 c 1
 230 617 215 608 215 588 c 3
 357 392 l 25
 518 593 l 19
 518 614 465 620 453 632 c 0
 449 636 447 638 447 650 c 1
 651 650 l 1
 651 626 648 628 646 626 c 0
 641 621 588 607 577 593 c 10
 386 350 l 25
 594 61 l 18
EndSplineSet
Validated: 1
EndChar
StartChar: Y
Encoding: 89 89 55
Width: 622
VWidth: 0
Flags: W
HStem: -4 21G<192 205.5 416.5 427> 630 20G<5 255 414 617>
VStem: 263 92<39.8081 297>
DStem2: 185 593 76 593 0.5341 -0.845421<-10.0814 273.582> 330 361 355 306 0.554031 0.832496<0 282.796>
LayerCount: 2
Fore
SplineSet
617 650 m 1
 617 638 615 636 611 632 c 0
 599 620 558 610 546 593 c 2
 355 306 l 1
 355 57 l 2
 355 39 419 29 424 24 c 0
 426 22 427 20 427 -4 c 1
 406 0 347 0 310 0 c 3
 273 0 219 0 192 -4 c 1
 192 8 194 14 198 18 c 0
 210 30 263 36 263 57 c 2
 263 297 l 1
 76 593 l 2
 66 608 13 621 8 626 c 0
 6 628 5 626 5 650 c 1
 255 650 l 1
 255 638 254 636 250 632 c 0
 238 620 185 623 185 593 c 3
 330 361 l 1
 485 593 l 3
 485 611 422 621 417 626 c 0
 415 628 414 626 414 650 c 1
 617 650 l 1
EndSplineSet
Validated: 1
EndChar
StartChar: Z
Encoding: 90 90 58
Width: 571
VWidth: 0
Flags: W
HStem: 0 47<183 439.363> 603 47<135.869 373>
VStem: 57 28<495.795 530.197> 503 28<128.892 164.066>
DStem2: 50 0 183 47 0.472181 0.881502<104.231 684.06>
LayerCount: 2
Fore
SplineSet
500 650 m 9
 183 47 l 25
 385 47 l 2
 419 47 479 80 503 165 c 1
 508 165 522 166 531 162 c 1
 505 12 l 1
 486 3 425 0 373 0 c 2
 50 0 l 25
 373 603 l 17
 185 603 l 2
 139 603 102 551 85 494 c 1
 80 494 66 494 57 498 c 1
 83 632 l 1
 102 641 129 650 173 650 c 2
 500 650 l 9
EndSplineSet
EndChar
StartChar: bracketleft
Encoding: 91 91 85
Width: 300
VWidth: 0
Flags: W
HStem: -130 46<145 240.093> 669 46<150 245.409>
VStem: 70 75<-84 669>
LayerCount: 2
Fore
SplineSet
250 719 m 1
 249 703 248 687 245 674 c 1
 212 672 190 671 150 669 c 1
 149 419 147 171 145 -84 c 1
 182 -82 213 -81 245 -79 c 1
 243 -94 242 -109 240 -124 c 1
 189 -129 126 -129 70 -130 c 5
 71 151 71 419 75 715 c 5
 132 717 196 718 250 719 c 1
EndSplineSet
EndChar
StartChar: backslash
Encoding: 92 92 82
Width: 330
VWidth: 0
Flags: MW
HStem: 685 20G<90 131.5>
VStem: 230 70<-48.1083 2.40234>
DStem2: 300 -45 230 -65 0.257663 -0.966235<-774.92 1.93129>
LayerCount: 2
Fore
SplineSet
100 705 m 5
 163 458 230 208 300 -45 c 5
 280 -55 255 -60 230 -65 c 5
 155 181 93 433 30 685 c 5
 55 690 80 695 100 705 c 5
EndSplineSet
Validated: 1
EndChar
StartChar: underscore
Encoding: 95 95 71
Width: 450
VWidth: 0
Flags: W
HStem: -105 60<7.03125 453.74>
LayerCount: 2
Fore
SplineSet
450 -105 m 1
 300 -108 150 -109 0 -110 c 1
 3 -100 4 -90 4 -80 c 3
 4 -70 3 -60 0 -50 c 1
 150 -49 300 -47 450 -45 c 1
 453 -55 454 -65 454 -75 c 3
 454 -85 453 -95 450 -105 c 1
EndSplineSet
Validated: 1
EndChar
StartChar: grave
Encoding: 96 96 97
Width: 500
VWidth: 0
Flags: W
HStem: 431 155
VStem: 140 230
LayerCount: 2
Fore
SplineSet
145 550 m 1
 230 586 l 1
 230 551 342 472 370 456 c 9
 340 431 l 17
 276 461 194 480 140 535 c 1
 145 550 l 1
EndSplineSet
Validated: 1
EndChar
StartChar: a
Encoding: 97 97 14
Width: 471
VWidth: 0
Flags: MW
HStem: -10 56<132.732 236.453> 381 49<145.866 265.918>
VStem: 35 84<59.5496 155.582> 275 86<66.6946 201 234.129 313.962>
LayerCount: 2
Fore
SplineSet
119 110 m 3
 119 63 149 46 185 46 c 27
 224 46 254 63 275 84 c 9
 275 201 l 17
 225 186 119 187 119 110 c 3
361 286 m 10
 361 104 l 18
 361 90 364 65 383 65 c 11
 405 65 419 74 430 96 c 9
 446 68 l 17
 423 19 397 -10 348 -10 c 27
 316 -10 282 7 282 39 c 1
 242 11 197 -10 171 -10 c 3
 97 -10 35 24 35 98 c 3
 35 203 189 214 275 240 c 9
 278 261 282 293 282 315 c 27
 282 349 255 381 225 381 c 3
 154 381 139 374.041648598 139 326 c 7
 139 289.986113789 132 274 100 274 c 3
 76 274 48 283 48 307 c 27
 48 332 58 352 74 365 c 0
 91 379 151 430 237 430 c 3
 333 430 361 396 361 286 c 10
EndSplineSet
EndChar
StartChar: b
Encoding: 98 98 18
Width: 528
VWidth: 0
Flags: W
HStem: -10 39<217.882 340.803> 391 39<201.052 325.407> 617 28<25 71.6137> 684 20G<157.5 173>
VStem: 83 86<72.3594 364.512 398 610.776> 395 98<106.322 307.432>
LayerCount: 2
Fore
SplineSet
169 618 m 2
 169 398 l 1
 197 425 243 430 278 430 c 3
 411 430 493 332 493 214 c 3
 493 67 400 -10 271 -10 c 3
 202 -10 125 11 83 58 c 1
 83 567 l 2
 83 609 60 617 25 617 c 9
 25 645 l 17
 56 645 140 675 175 704 c 1
 171 685 169 662 169 618 c 2
169 343 m 1
 169 131 l 2
 169 71 225 29 285 29 c 3
 336 29 395 70 395 188 c 3
 395 287 360 391 265 391 c 3
 241 391 194 379 169 343 c 1
EndSplineSet
EndChar
StartChar: c
Encoding: 99 99 20
Width: 443
VWidth: 0
Flags: W
HStem: -10 39<210.36 340.138> 391 39<191.174 301.325>
VStem: 35 97<119.979 307.25>
LayerCount: 2
Fore
SplineSet
249 391 m 7
 205 391 132 357 132 228 c 7
 132 127 183 29 269 29 c 7
 320 29 361 55 392 95 c 13
 418 81 l 21
 385 20 333 -10 255 -10 c 7
 120 -10 35 62 35 212 c 7
 35 368 169 430 262 430 c 7
 343 430 405 387 405 364 c 7
 405 342 389 319 362 319 c 7
 330 319 317 391 249 391 c 7
EndSplineSet
Validated: 1
EndChar
StartChar: f
Encoding: 102 102 23
Width: 335
VWidth: 0
Flags: W
HStem: -4 30<183.864 241.182> 370 50<48.3193 91 176 296.52> 646 59<232.476 325.677>
VStem: 91 85<35.6212 370 420 559.355>
LayerCount: 2
Fore
SplineSet
176 420 m 1
 322 420 l 1
 296 364 l 1
 290 365 272 370 237 370 c 2
 176 370 l 1
 176 52 l 2
 176 32 232 32 238 26 c 0
 241 23 242 22 242 -4 c 1
 218 -1 171 0 130 0 c 7
 89 0 56 -1 26 -4 c 1
 26 9 28 16 32 20 c 0
 45 33 91 28 91 52 c 2
 91 370 l 1
 59 370 48 367 30 364 c 1
 30 386 36 411 60 420 c 1
 91 420 l 1
 91 455 l 2
 91 639 245 705 318 705 c 3
 375 705 430 650 430 633 c 0
 430 612 376 587 358 587 c 1
 322 631 315 646 254 646 c 3
 214 646 176 607 176 455 c 2
 176 420 l 1
EndSplineSet
EndChar
StartChar: k
Encoding: 107 107 29
Width: 527
VWidth: 0
Flags: MW
HStem: -4 30<191.917 237.003 296.818 341.203> 208 39<186 197> 394 26<259.517 301.75> 614 28<42 88.6137> 681 20G<174.5 190>
VStem: 100 86<33.9572 208 247 607.851>
DStem2: 197 247 265 240 0.68089 0.732386<41.1738 167.533> 265 240 197 208 0.697461 -0.716622<0 193.788>
LayerCount: 2
Fore
SplineSet
100 565 m 18
 100 606 77 614 42 614 c 9
 42 642 l 17
 73 642 157 672 192 701 c 1
 188 682 186 659 186 615 c 2
 186 247 l 1
 197 247 l 9
 311 368 l 19
 311 388 268 389 263 394 c 1
 260 397 259 394 259 420 c 1
 449 420 l 1
 449 407 447 404 443 400 c 1
 430 387 400 385 384 368 c 10
 265 240 l 25
 447 53 l 18
 463 36 493 33 506 20 c 1
 510 16 512 10 512 -3 c 1
 482 1 453 1 415 1 c 27
 369 1 319 1 296 -3 c 1
 296 23 297 24 300 27 c 1
 305 32 348 32 348 53 c 3
 197 208 l 17
 186 208 l 9
 186 52 l 18
 186 32 228 32 234 26 c 1
 237 23 238 22 238 -4 c 1
 214 -1 186 0 152 0 c 27
 106 0 65 -1 35 -4 c 1
 35 9 37 16 41 20 c 1
 54 33 100 28 100 52 c 10
 100 565 l 18
EndSplineSet
EndChar
StartChar: l
Encoding: 108 108 8
Width: 278
VWidth: 0
Flags: W
HStem: -4 30<191.917 237.182> 614 28<42 88.5454> 681 20G<174.5 190>
VStem: 100 86<33.9572 607.543>
LayerCount: 2
Fore
SplineSet
186 615 m 2
 186 52 l 18
 186 32 228 32 234 26 c 0
 237 23 238 22 238 -4 c 1
 214 -1 180 0 139 0 c 7
 98 0 65 -1 35 -4 c 1
 35 9 37 16 41 20 c 0
 54 33 100 28 100 52 c 10
 100 565 l 18
 100 605 77 614 42 614 c 9
 42 642 l 17
 73 642 157 672 192 701 c 1
 188 682 186 660 186 615 c 2
EndSplineSet
EndChar
StartChar: m
Encoding: 109 109 7
Width: 793
VWidth: 0
Flags: MW
HStem: -4 30<191.917 237.182 453.917 499.182 716.917 762.182> 365 65<247.769 347.391 514.495 609.087>
VStem: 100 86<33.9572 326.689 351 357.543> 363 85<33.9572 327.106> 625 86<33.9572 351.09>
CounterMasks: 1 38
LayerCount: 2
Fore
SplineSet
100 315 m 2
 100 355 77 364 42 364 c 9
 42 392 l 17
 73 392 157 422 192 451 c 1
 188 432 186 410 186 365 c 2
 186 351 l 1
 237 402 255 430 337 430 c 3
 393 430 429 406 443 346 c 1
 492 394 521 430 599 430 c 3
 669 430 711 373 711 286 c 2
 711 52 l 2
 711 32 753 32 759 26 c 0
 762 23 763 22 763 -4 c 1
 739 -1 718 0 677 0 c 3
 636 0 590 -1 560 -4 c 1
 560 9 563 16 567 20 c 0
 580 33 625 28 625 52 c 2
 625 286 l 2
 625 319 610 365 573 365 c 3
 518 365 505 351 448 313 c 9
 448 52 l 2
 448 32 490 32 496 26 c 0
 499 23 500 22 500 -4 c 1
 476 -1 456 0 415 0 c 3
 374 0 328 -1 298 -4 c 1
 298 9 300 16 304 20 c 0
 317 33 363 28 363 52 c 2
 363 286 l 2
 363 319 348 365 311 365 c 3
 256 365 243 350 186 312 c 1
 186 52 l 2
 186 32 228 32 234 26 c 0
 237 23 238 22 238 -4 c 1
 214 -1 193 0 152 0 c 3
 111 0 65 -1 35 -4 c 1
 35 9 38 16 42 20 c 0
 55 33 100 28 100 52 c 2
 100 315 l 2
EndSplineSet
Validated: 1
EndChar
StartChar: n
Encoding: 110 110 0
Width: 536
VWidth: 0
Flags: MW
HStem: -4 30<191.917 237.182 459.917 505.182> 365 65<250.538 352.087>
VStem: 100 86<33.9572 325.188 351 357.543> 368 86<33.9572 351.09>
LayerCount: 2
Fore
SplineSet
186 351 m 1
 238 402 260 430 342 430 c 3
 412 430 454 373 454 286 c 10
 454 52 l 18
 454 32 496 32 502 26 c 1
 505 23 506 22 506 -4 c 1
 482 -1 454 0 420 0 c 27
 374 0 333 -1 303 -4 c 1
 303 9 305 16 309 20 c 1
 322 33 368 28 368 52 c 10
 368 286 l 18
 368 319 353 365 316 365 c 3
 261 365 244 350 186 312 c 1
 186 52 l 2
 186 32 228 32 234 26 c 0
 237 23 238 22 238 -4 c 1
 214 -1 193 0 152 0 c 3
 111 0 65 -1 35 -4 c 1
 35 9 38 16 42 20 c 0
 55 33 100 28 100 52 c 2
 100 315 l 2
 100 355 77 364 42 364 c 9
 42 392 l 17
 73 392 157 422 192 451 c 1
 188 432 186 410 186 365 c 2
 186 351 l 1
EndSplineSet
Validated: 1
EndChar
StartChar: o
Encoding: 111 111 12
Width: 495
VWidth: 0
Flags: W
HStem: -10 39<199.57 313.415> 391 39<181.176 297.907>
VStem: 30 97<113.561 303.635> 368 97<106.322 307.432>
LayerCount: 2
Fore
SplineSet
238 391 m 3
 194 391 127 357 127 228 c 3
 127 127 171 29 257 29 c 3
 308 29 368 70 368 188 c 3
 368 287 333 391 238 391 c 3
30 202 m 3
 30 358 157 430 250 430 c 3
 383 430 465 332 465 214 c 3
 465 67 373 -10 244 -10 c 3
 109 -10 30 84 30 202 c 3
EndSplineSet
Validated: 1
EndChar
StartChar: p
Encoding: 112 112 17
Width: 549
VWidth: 0
Flags: MW
HStem: -274 30<198.725 255.182> -10 39<231.937 362.869> 391 39<238.709 347.386>
VStem: 105 86<-234.586 46 57.5957 356.409> 417 97<106.322 307.432>
LayerCount: 2
Fore
SplineSet
105 315 m 2
 105 355 82 364 47 364 c 9
 47 392 l 17
 78 392 162 422 197 451 c 1
 193 432 191 409 191 364 c 1
 220 403 257 430 300 430 c 3
 433 430 514 332 514 214 c 3
 514 67 423 -10 294 -10 c 3
 256 -10 219 12 191 46 c 1
 191 -218 l 2
 191 -238 246 -238 252 -244 c 0
 255 -247 256 -248 256 -274 c 1
 232 -271 185 -270 144 -270 c 7
 103 -270 70 -271 40 -274 c 1
 40 -261 42 -255 46 -251 c 0
 59 -238 105 -242 105 -218 c 2
 105 315 l 2
191 325 m 1
 191 87 l 1
 209 51 243 29 306 29 c 3
 357 29 417 70 417 188 c 3
 417 287 382 391 287 391 c 3
 245 391 212 365 191 325 c 1
EndSplineSet
EndChar
StartChar: r
Encoding: 114 114 9
Width: 406
VWidth: 0
Flags: MW
HStem: -4 30<197.605 277.182> 354 76<267.61 342.445>
VStem: 100 86<37.6369 319.058 338 357.543>
LayerCount: 2
Fore
SplineSet
100 315 m 18
 100 355 77 364 42 364 c 9
 42 392 l 17
 73 392 157 422 192 451 c 1
 188 432 186 410 186 365 c 2
 186 338 l 1
 237 389 292 430 305 430 c 3
 362 430 391 395 391 378 c 3
 391 357 340 309 322 309 c 1
 316 325 311 354 273 354 c 3
 233 354 220 340 186 289 c 9
 186 52 l 17
 186 32 269 31 274 26 c 1
 277 23 278 22 278 -4 c 1
 255 0 196 0 162 0 c 27
 116 0 65 0 35 -4 c 1
 35 9 38 16 42 20 c 1
 55 33 100 29 100 52 c 9
 100 315 l 18
EndSplineSet
Validated: 1
EndChar
StartChar: s
Encoding: 115 115 21
Width: 374
VWidth: 0
Flags: W
HStem: -10 44<106.461 237.018> 386 44<140.422 255.185>
VStem: 41 90<275.994 372.744> 249 90<45.2545 144.796>
LayerCount: 2
Fore
SplineSet
339 125 m 3xd8
 339 16 261 -10 188 -10 c 3
 131 -10 72 6 51 16 c 1
 35 116 l 1
 45 120 53 120 58 120 c 1
 76 58 137 34 175 34 c 3
 235 34 249 57 249 99 c 3xe8
 249 146 203 164 171 174 c 0
 147 182 41 214 41 300 c 3
 41 402 132 430 205 430 c 3
 262 430 277 421 298 411 c 1
 313 310 l 1
 304 308 295 307 290 307 c 1xd4
 272 369 230 386 192 386 c 3
 143 386 131 364 131 326 c 3
 131 277 171 256 211 243 c 0
 249 231 339 195 339 125 c 3xd8
EndSplineSet
Validated: 1
EndChar
StartChar: u
Encoding: 117 117 10
Width: 542
VWidth: 0
Flags: MW
HStem: -10 59<197.158 307.069> 387 30<30.8175 83.7288 283.818 343.616>
VStem: 88 84<76.6922 380.904> 348 84<71.7115 380.36>
LayerCount: 2
Fore
SplineSet
432 430 m 1
 432 87 l 18
 432 65 449 55 471 55 c 3
 485 55 505 62 517 68 c 9
 517 24 l 17
 341 -10 l 1
 344 0 348 13 348 37 c 2
 348 42 l 1
 316 10 270 -10 224 -10 c 3
 138 -10 88 56 88 146 c 10
 88 365 l 18
 88 385 39 382 34 387 c 1
 31 390 30 391 30 417 c 1
 53 417 138 430 172 430 c 1
 172 133 l 2
 172 99 196 49 250 49 c 3
 286 49 311 58 348 87 c 9
 348 365 l 18
 348 385 292 382 287 387 c 1
 284 390 283 391 283 417 c 1
 311 417 388 430 432 430 c 1
EndSplineSet
Validated: 1
EndChar
StartChar: v
Encoding: 118 118 25
Width: 455
VWidth: 0
Flags: W
HStem: -10 21G<219.5 233.5> 394 26<299.517 340.874>
DStem2: 150 368 57 368 0.34889 -0.937164<-11.7721 294.134> 249 91 262 0 0.34665 0.937994<0 304.768>
LayerCount: 2
Fore
SplineSet
450 420 m 1
 450 407 448 404 444 400 c 0
 431 387 406 390 398 368 c 2
 262 0 l 2
 258 -10 241 -10 226 -10 c 3
 213 -10 198 -10 194 0 c 2
 57 368 l 2
 50 386 14 389 9 394 c 0
 6 397 5 394 5 420 c 1
 215 420 l 1
 215 407 212 404 208 400 c 0
 195 387 150 394 150 368 c 3
 249 91 l 1
 351 368 l 3
 351 387 308 389 303 394 c 0
 300 397 299 394 299 420 c 1
 450 420 l 1
EndSplineSet
Validated: 1
EndChar
StartChar: w
Encoding: 119 119 26
Width: 676
VWidth: 0
Flags: W
HStem: -10 21G<206.5 220.5 440.5 454.5> 394 26<520.517 561.874>
DStem2: 150 368 57 368 0.319316 -0.947648<-12.694 287.436> 237 94 249 0 0.345876 0.93828<0 187.726> 397 368 323 327 0.271957 -0.962309<-13.5344 19.3299 94.0553 281.183> 472 97 483 0 0.34665 0.937994<0 298.461>
LayerCount: 2
Fore
SplineSet
202 420 m 1
 202 407 199 404 195 400 c 0
 182 387 150 390 150 368 c 1
 237 94 l 1
 323 327 l 1
 311 368 l 2
 305 386 268 389 263 394 c 0
 260 397 259 394 259 420 c 1
 462 420 l 1
 462 407 459 404 455 400 c 0
 442 387 397 394 397 368 c 1
 472 97 l 1
 572 368 l 1
 572 387 529 389 524 394 c 0
 521 397 520 394 520 420 c 1
 671 420 l 1
 671 407 669 404 665 400 c 0
 652 387 628 390 619 368 c 2
 483 0 l 2
 479 -10 462 -10 447 -10 c 3
 434 -10 418 -9 415 0 c 2
 343 255 l 1
 249 0 l 2
 245 -10 228 -10 213 -10 c 3
 200 -10 184 -10 181 0 c 2
 57 368 l 2
 50 386 14 389 9 394 c 0
 6 397 5 394 5 420 c 1
 202 420 l 1
EndSplineSet
Validated: 1
EndChar
StartChar: x
Encoding: 120 120 30
Width: 468
VWidth: 0
Flags: W
HStem: -4 30<136.337 183.182> 394 26<16.3403 64.0602 273.818 307.764>
DStem2: 175 368 67 378 0.583788 -0.811906<-8.93992 117.641 189.236 342.491> 70 52 135 48 0.608009 0.79393<30.6257 183.905 279.85 404.459>
LayerCount: 2
Fore
SplineSet
372 0 m 3
 335 0 293 0 266 -4 c 1
 266 8 268 14 272 18 c 0
 284 30 305 30 305 47 c 3
 221 168 l 25
 135 48 l 19
 135 21 175 31 180 26 c 1
 183 23 184 22 184 -4 c 1
 161 0 130 0 95 0 c 27
 62 0 45 0 10 -4 c 1
 10 9 13 16 17 20 c 1
 30 33 47 21 70 52 c 10
 186 213 l 25
 67 378 l 18
 56 393 24 389 19 394 c 1
 16 397 15 394 15 420 c 1
 210 420 l 1
 210 407 207 404 203 400 c 1
 190 387 175 385 175 368 c 3
 243 272 l 25
 312 368 l 3
 312 394 282 385 277 390 c 1
 274 393 273 394 273 420 c 1
 442 420 l 1
 442 407 439 401 435 397 c 1
 422 384 394 393 376 368 c 10
 276 231 l 25
 399 51 l 18
 420 21 438 33 451 20 c 1
 455 16 458 9 458 -4 c 1
 421 0 414 0 372 0 c 3
EndSplineSet
Validated: 1
EndChar
StartChar: braceleft
Encoding: 123 123 169
Width: 330
VWidth: 0
Flags: W
HStem: -140 24<258.633 295> 686 24<263.844 300>
VStem: 50 250
LayerCount: 2
Fore
SplineSet
295 -140 m 17
 15 -140 204 241 50 287 c 5
 202 349 22 710 300 710 c 9
 300 686 l 17
 125 686 247 301 154 287 c 1
 246 265 132 -116 295 -116 c 9
 295 -140 l 17
EndSplineSet
EndChar
StartChar: bar
Encoding: 124 124 83
Width: 214
VWidth: 0
Flags: W
HStem: -4 21G<101 112> 630 20G<70 75 138.5 144>
VStem: 70 74<-3.39098 649>
LayerCount: 2
Fore
SplineSet
144 0 m 1
 133 -3 118 -4 106 -4 c 3
 96 -4 81 -3 70 0 c 1
 70 650 l 1
 80 649 95 649 105 649 c 3
 117 649 133 649 144 650 c 1
 144 0 l 1
EndSplineSet
EndChar
StartChar: braceright
Encoding: 125 125 170
Width: 320
VWidth: 0
Flags: W
HStem: -140 24<20 56.399> 686 24<25 61.1241>
VStem: 20 250
LayerCount: 2
Fore
SplineSet
20 -140 m 9
 20 -116 l 17
 183 -116 74 265 166 287 c 1
 73 301 200 686 25 686 c 9
 25 710 l 17
 303 710 118 349 270 287 c 5
 116 241 300 -140 20 -140 c 9
EndSplineSet
EndChar
StartChar: asciitilde
Encoding: 126 126 152
Width: 500
VWidth: 0
Flags: MW
HStem: 225 65<130.431 229.643>
LayerCount: 2
Fore
SplineSet
80 170 m 9
 60 190 l 17
 82 226 129 290 195 290 c 27
 248 290 267 235 320 235 c 31
 367 235 394 264 420 300 c 9
 440 280 l 17
 408 222 366 170 295 170 c 27
 245 170 230 225 180 225 c 27
 135 225 102 206 80 170 c 9
EndSplineSet
Validated: 1
EndChar
StartChar: cent
Encoding: 162 162 144
Width: 443
VWidth: 0
Flags: MW
HStem: -9 38<277 339.439> 389 39<190.84 229>
VStem: 35 97<120.492 308.128> 220 55<-107.234 -6.78992 39 257.867>
LayerCount: 2
Fore
SplineSet
275 -107 m 1
 257 -108 238 -109 220 -110 c 1
 221 -76 221 -42 222 -8 c 1
 106 3 35 75 35 212 c 3
 35 350 140 415 229 428 c 1
 229 462 230 496 230 530 c 1
 248 531 267 532 285 533 c 1
 284 498 284 464 283 429 c 1
 353 422 405 385 405 364 c 3
 405 342 389 319 362 319 c 3
 336 319 322 366 282 384 c 1
 280 266 279 148 277 29 c 1
 324 32 363 57 392 95 c 1
 418 81 l 1
 388 26 342 -4 276 -9 c 1
 276 -42 275 -74 275 -107 c 1
223 39 m 1
 225 155 228 273 229 389 c 1
 186 380 132 339 132 228 c 3
 132 146 165 67 223 39 c 1
EndSplineSet
Validated: 1
EndChar
StartChar: sterling
Encoding: 163 163 184
Width: 556
VWidth: 0
Flags: W
HStem: -11 67<250.475 420.555> 30 69<171 223.678> 270 50<47.3193 118 211 365.52> 602 59<279.702 394.677>
DStem2: 90 112 171 99 0.176939 0.984222<1.53716 160.461 226.128 468.528>
LayerCount: 2
Fore
SplineSet
171 99 m 1x70
 216 99 277 56 347 56 c 3
 430 56 475 94 488 127 c 1
 521 117 l 1
 505 80 451 -11 325 -11 c 3xb0
 266 -11 170 30 129 30 c 3
 88 30 45 -7 15 -10 c 1
 15 3 17 10 21 14 c 0
 34 27 78 46 90 112 c 2
 118 270 l 1
 90 270 l 2
 58 270 47 267 29 264 c 1
 29 286 35 311 59 320 c 1
 126 320 l 1
 150 455 l 2
 183 639 314 661 387 661 c 3
 444 661 499 606 499 589 c 3
 499 568 445 543 427 543 c 1
 391 587 384 602 323 602 c 3
 283 602 254 562 235 455 c 2
 211 320 l 1
 391 320 l 1
 365 264 l 1
 359 265 271 270 236 270 c 2
 202 270 l 1
 171 99 l 1x70
EndSplineSet
Validated: 1
EndChar
StartChar: yen
Encoding: 165 165 171
Width: 622
VWidth: 0
Flags: W
HStem: -4 21G<192 205.5 416.5 427> 145 54<159.724 263 355 460.193> 237 56<169.812 263 355 470.46> 630 20G<5 255 414 617>
VStem: 263 92<39.8081 144 199 236 293 297>
DStem2: 185 593 76 593 0.5341 -0.845421<-10.0814 273.582> 330 361 355 306 0.554031 0.832496<0 282.796>
LayerCount: 2
Fore
SplineSet
617 650 m 1
 617 638 615 636 611 632 c 0
 599 620 558 610 546 593 c 2
 355 306 l 1
 355 293 l 1
 398 293 441 293 480 294 c 1
 477 276 475 257 470 239 c 1
 434 238 395 237 355 237 c 1
 355 199 l 1
 395 199 434 200 470 201 c 1
 466 183 462 164 460 146 c 1
 427 145 391 145 355 145 c 1
 355 57 l 2
 355 39 419 29 424 24 c 0
 426 22 427 20 427 -4 c 1
 406 0 347 0 310 0 c 7
 273 0 219 0 192 -4 c 1
 192 8 194 14 198 18 c 0
 210 30 263 36 263 57 c 2
 263 144 l 1
 223 144 185 143 150 141 c 1
 156 159 157 178 160 196 c 1
 192 197 227 197 263 198 c 1
 263 236 l 1
 227 235 192 235 160 234 c 1
 166 251 168 270 170 289 c 1
 200 290 231 290 263 291 c 1
 263 297 l 1
 76 593 l 2
 66 608 13 621 8 626 c 0
 6 628 5 626 5 650 c 1
 255 650 l 1
 255 638 254 636 250 632 c 0
 238 620 185 623 185 593 c 1
 330 361 l 1
 485 593 l 1
 485 611 422 621 417 626 c 0
 415 628 414 626 414 650 c 1
 617 650 l 1
EndSplineSet
Validated: 1
EndChar
StartChar: brokenbar
Encoding: 166 166 145
Width: 190
VWidth: 0
Flags: W
HStem: -5 21G<83 93.5> 630 20G<64.5 70 124 129.5>
VStem: 63 65<-3.24297 277 369.041 649>
LayerCount: 2
Fore
SplineSet
128 370 m 1
 117 369 106 369 94 369 c 3
 84 369 74 369 63 370 c 1
 64 465 64 558 65 650 c 1
 75 649 84 649 92 649 c 3
 106 649 118 650 130 650 c 1
 129 548 129 453 128 370 c 1
125 0 m 1
 113 -2 100 -5 87 -5 c 3
 79 -5 70 -4 60 0 c 1
 61 93 61 187 62 280 c 1
 71 278 80 277 88 277 c 3
 101 277 114 279 127 280 c 1
 126 187 127 96 125 0 c 1
EndSplineSet
Validated: 1
EndChar
StartChar: logicalnot
Encoding: 172 172 164
Width: 450
VWidth: 0
Flags: MW
HStem: 240 65<59.4342 277.595>
VStem: 325 60<129.725 250>
LayerCount: 2
Fore
SplineSet
330 250 m 1
 237 246 143 242 50 240 c 1
 56 262 58 283 60 305 c 1
 170 306 282 306 390 310 c 1
 388 250 388 190 385 130 c 1
 368 127 347 126 325 125 c 1
 330 163 328 210 330 250 c 1
EndSplineSet
Validated: 1
EndChar
StartChar: uni00AD
Encoding: 173 173 156
Width: 400
VWidth: 0
Flags: W
HStem: 200 55<79.7244 300.46>
VStem: 70 240
LayerCount: 2
Fore
SplineSet
300 205 m 1
 217 205 153 205 70 200 c 1
 76 216 77 236 80 255 c 1
 161 259 226 259 310 260 c 1
 307 241 305 219 300 205 c 1
EndSplineSet
Validated: 1
EndChar
StartChar: registered
Encoding: 174 174 198
Width: 428
Flags: W
HStem: 340 21<154.824 274.315> 421 6<196.379 201.885 303.473 317> 510 18<177 196.108> 612 22<177 235.466> 684 21<154.982 271.626>
VStem: 30 27<452.649 592.228> 144 33<430.375 510 528 611.933> 254 32<541.943 598.991> 371 27<454.287 591.37>
LayerCount: 2
Fore
SplineSet
214 361 m 3
 330 361 371 451 371 524 c 3
 371 644 278 684 214 684 c 3
 126 684 57 624 57 524 c 3
 57 400 148 361 214 361 c 3
214 705 m 3
 322 705 398 636 398 524 c 3
 398 418 327 340 214 340 c 3
 100 340 30 419 30 524 c 3
 30 631 110 705 214 705 c 3
196 612 m 2
 190 612 l 2
 188 612 177 609 177 603 c 2
 177 528 l 1
 194 528 l 2
 216 528 254 539 254 571 c 3
 254 602 215 612 196 612 c 2
177 510 m 1
 177 436 l 2
 177 430 198 431 200 429 c 0
 201 428 202 427 202 419 c 1
 195 420 169 421 157 421 c 3
 145 421 133 420 124 419 c 1
 124 423 125 426 126 427 c 0
 130 431 144 429 144 436 c 2
 144 619 l 2
 144 629 124 621 124 635 c 1
 133 634 147 634 159 634 c 2
 206 634 l 2
 256 634 286 602 286 580 c 3
 286 551 275 522 231 510 c 1
 288 432 300 427 319 427 c 1
 317 421 l 1
 259 421 l 2
 252 421 210 509 177 510 c 1
EndSplineSet
Validated: 1
EndChar
StartChar: macron
Encoding: 175 175 157
Width: 500
VWidth: 0
Flags: W
HStem: 490 60<105 395.363>
VStem: 100 300
LayerCount: 2
Fore
SplineSet
395 495 m 1
 301 492 198 492 100 490 c 1
 101 505 105 527 105 550 c 1
 203 552 302 550 400 555 c 1
 399 535 399 515 395 495 c 1
EndSplineSet
Validated: 1
EndChar
StartChar: uni00B2
Encoding: 178 178 182
Width: 220
VWidth: 0
Flags: W
HStem: 430 45<88 198.802> 650 30<69.2973 124.427>
VStem: 134 55<560.496 646.269> 199 11<485.139 492.897>
LayerCount: 2
Fore
SplineSet
189 615 m 3
 189 577.986328125 137 509 88 475 c 9
 157 475 l 2
 176 475 195 480 199 493 c 1
 202 493 204 493 210 492 c 1
 200 437 l 1
 189 432 171 430 142 430 c 2
 10 430 l 17
 100 509 134 577.913085938 134 601 c 3
 134 633.015625 118.0234375 650 97 650 c 3
 76.7763671875 650 55 624 45 595 c 1
 42 595 25 595 20 597 c 1
 29 637 l 2
 34.5947265625 661.866210938 68 680 102 680 c 3
 144 680 189 661.010742188 189 615 c 3
EndSplineSet
Validated: 1
EndChar
StartChar: uni00B3
Encoding: 179 179 183
Width: 199
VWidth: 0
Flags: W
HStem: 425 25<49.1911 110.322> 650 30<49.0914 112.342>
VStem: 16 24<460.355 480.675 616.783 626> 121 50<583.597 644.755> 129 55<460.611 539.715>
LayerCount: 2
Fore
SplineSet
171 624 m 3xf0
 171 593.983398438 144 571 124 567 c 1
 150 564 184 537 184 503 c 3
 184 466.986328125 132 425 74 425 c 7
 37.875 425 22 432 16 435 c 5
 10 480 l 5
 14 481 32 481 35 481 c 5
 40 463 66 450 77 450 c 7
 103 450 129 471.694335938 129 498 c 3xe8
 129 533 96 550 80 551 c 2
 69 552 l 1
 69 574 l 1
 78 576 l 2
 104 582 121 592.913085938 121 616 c 3
 121 636 97 650 78 650 c 3
 64 650 42 636 40 616 c 1
 38 616 19 616 16 617 c 1
 20 653 l 1
 25 657 56.9474048191 680 95 680 c 3
 127 680 171 655 171 624 c 3xf0
EndSplineSet
Validated: 1
EndChar
StartChar: acute
Encoding: 180 180 101
Width: 500
VWidth: 0
Flags: W
HStem: 431 155
VStem: 130 230
LayerCount: 2
Fore
SplineSet
355 550 m 5
 360 535 l 5
 306 480 224 461 160 431 c 13
 130 456 l 21
 158 472 270 551 270 586 c 5
 355 550 l 5
EndSplineSet
Validated: 1
EndChar
StartChar: mu
Encoding: 181 181 187
Width: 546
VWidth: 0
Flags: MW
HStem: -10 59<161.198 280.265> -10 39<409.579 484.122> 400 20G<50 136 312 398>
VStem: 50 86<75.1612 420> 312 86<72.4861 420> 506 20<65.2189 85.2>
LayerCount: 2
Fore
SplineSet
312 420 m 1xbc
 398 420 l 1
 398 173 l 2
 398 72 398 29 446 29 c 3
 479 29 496 54 506 93 c 1
 526 81 l 1
 516 32 480 -10 432 -10 c 3x7c
 391 -10 354 8 333 50 c 1
 290 11 250 -10 188 -10 c 3
 155 -10 126 -0 104 17 c 1
 107 -105 126 -164 126 -188 c 3
 126 -209 108 -244 77 -244 c 3
 45 -244 30 -203 30 -188 c 3
 30 -172 50 -97 50 45 c 2
 50 420 l 1
 136 420 l 1
 136 133 l 2
 136 99 160 49 214 49 c 3
 250 49 275 58 312 87 c 1
 312 420 l 1xbc
EndSplineSet
Validated: 1
EndChar
StartChar: periodcentered
Encoding: 183 183 148
Width: 260
VWidth: 0
Flags: W
HStem: 157 92<83.5156 166.048>
VStem: 80 90<160.217 245.503>
LayerCount: 2
Fore
SplineSet
125 249 m 27
 150 249 170 242 170 203 c 3
 170 160 150 157 125 157 c 27
 100 157 80 162 80 203 c 3
 80 244 100 249 125 249 c 27
EndSplineSet
Validated: 1
EndChar
StartChar: cedilla
Encoding: 184 184 149
Width: 260
VWidth: 0
Flags: MW
HStem: -195 15<72.6667 86.6526> -46 56<99 131.598>
VStem: 150 60<-125.01 -65.5332>
LayerCount: 2
Fore
SplineSet
150 -95 m 3
 150 -69.974609375 98.7734375 -46.0625 81 -46 c 9
 99 10 l 25
 160 10 l 1
 150 -30 l 1
 169 -30 210 -59 210 -85 c 3
 210 -127 111 -189 75 -195 c 1
 70 -180 l 1
 101 -171 150 -132.013671875 150 -95 c 3
EndSplineSet
Validated: 1
EndChar
StartChar: uni00B9
Encoding: 185 185 181
Width: 170
VWidth: 0
Flags: W
HStem: 428 29<16.3905 68.5588 113.686 158.342> 619 25<25 49>
VStem: 70 42<462.219 616.999>
LayerCount: 2
Fore
SplineSet
25 619 m 1
 25 644 l 1
 41 644 81 653 118 685 c 1
 115 668 112 640 112 601 c 2
 112 477 l 18
 112 459 151 462 156 457 c 0
 159 454 160 437 160 428 c 1
 151 430 122 430 85 430 c 3
 48 430 25 430 15 428 c 1
 15 437 15 453 19 455 c 0
 27 459 70 456 70 477 c 10
 70 568 l 18
 70 594 67 615 49 617 c 10
 25 619 l 1
EndSplineSet
Validated: 1
EndChar
StartChar: multiply
Encoding: 215 215 166
Width: 415
VWidth: 0
Flags: W
HStem: 50 320
VStem: 50 315
DStem2: 165 212 210 167 0.70059 0.713564<-164.055 -0.583825 62.5141 221.055> 210 255 165 212 0.70059 -0.713564<-162.044 -0.56781 62.7936 222.42>
LayerCount: 2
Fore
SplineSet
95 50 m 1
 81 64 69 78 50 95 c 1
 89 133 127 174 165 212 c 1
 127 251 88 287 50 325 c 1
 65 338 80 354 95 370 c 1
 134 332 172 293 210 255 c 1
 247 293 284 331 320 370 c 1
 335 355 351 341 365 324 c 1
 329 286 293 250 255 212 c 1
 292 174 328 134 365 96 c 1
 351 81 335 65 320 50 c 1
 283 88 247 129 210 167 c 1
 172 129 134 88 95 50 c 1
EndSplineSet
Validated: 1
EndChar
StartChar: Oslash
Encoding: 216 216 172
Width: 719
VWidth: 0
Flags: W
HStem: -10 42<280.239 465.367> 619 41<260.866 439.64> 680 20G<538.378 593.333>
VStem: 35 103<195.968 449.026> 581 103<186.044 448.727>
DStem2: 110 -50 175 -80 0.506015 0.862525<7.0152 112.818 187.8 703.51 781.542 869.54>
LayerCount: 2
Fore
SplineSet
175 -80 m 1
 110 -50 l 1
 166 46 l 1
 82 102 35 195 35 313 c 3
 35 523 170 660 351 660 c 3
 411 660 463 647 507 626 c 1
 550 700 l 1
 615 670 l 1
 567 588 l 1
 645 524 684 425 684 325 c 3
 684 85 530 -10 369 -10 c 3
 317 -10 271 -2 230 13 c 1
 175 -80 l 1
339 619 m 3
 214 619 138 501 138 337 c 3
 138 251 159 169 205 112 c 1
 477 576 l 1
 442 603 398 619 339 619 c 3
527 521 m 1
 259 64 l 1
 292 44 333 32 380 32 c 3
 498 32 581 124 581 301 c 3
 581 372 568 457 527 521 c 1
EndSplineSet
Validated: 1
EndChar
StartChar: Thorn
Encoding: 222 222 175
Width: 577
VWidth: 0
Flags: W
HStem: -4 28<207.249 281.182> 138 48<198 360.468> 473 47<198.271 360.907> 626 24<210.258 269.318>
VStem: 105 93<33.8841 138 186 471.42 520 617.045> 442 95<253.762 399.348>
LayerCount: 2
Fore
SplineSet
198 520 m 29
 315 520 l 6
 463 520 537 412 537 349 c 7
 537 224 476 138 277 138 c 6
 198 138 l 5
 198 47 l 2
 198 29 273 29 278 24 c 0
 281 21 282 19 282 -4 c 1
 260 -1 183 0 146 0 c 0
 109 0 72 -1 45 -4 c 1
 45 8 47 14 51 18 c 0
 63 30 105 26 105 47 c 2
 105 603 l 2
 105 624 53 620 41 632 c 0
 37 636 35 638 35 650 c 1
 270 650 l 1
 270 626 268 628 266 626 c 0
 261 621 198 621 198 603 c 2
 198 520 l 29
268 473 m 6
 229 473 l 6
 222 473 198 467 198 448 c 6
 198 186 l 5
 254 186 l 6
 354 186 442 230 442 325 c 7
 442 389 396 473 268 473 c 6
EndSplineSet
Validated: 1
EndChar
StartChar: germandbls
Encoding: 223 223 176
Width: 541
VWidth: 0
Flags: MW
HStem: -10 36<262.664 353.716> 666 39<219.571 313.909>
VStem: 91 85<32.8653 580.163> 227 60<26.1824 53.9531> 422 89<98.9208 259.728>
LayerCount: 2
Fore
SplineSet
176 0 m 17
 176 0 56 -1 26 -4 c 1
 26 9 28 16 32 20 c 0
 45 33 91 28 91 52 c 2
 91 455 l 2
 91 639 195 705 268 705 c 3
 371 705 441 627 441 535 c 3
 441 447 412 409 335 369 c 1
 438 369 511 264 511 194 c 3
 511 66 412 -10 292 -10 c 3
 235 -10 227 22 227 39 c 3
 227 60 269 78 287 78 c 1
 287 59 291 26 300 26 c 3
 368 26 422 100 422 179 c 3
 422 292 328 332 262 332 c 3
 248 332 227 328 227 328 c 1
 227 358 l 1
 255 373 l 2
 329 413 352 474 352 526 c 3
 352 570 340 666 264 666 c 3
 207 666 176 607 176 455 c 2
 176 0 l 17
EndSplineSet
Validated: 1
EndChar
StartChar: ccedilla
Encoding: 231 231 150
Width: 443
VWidth: 0
Flags: W
HStem: -195 15<192.667 206.653> -46 75<214.505 251.661> -8 37<211.312 213 275 336.853> 391 39<191.174 301.325>
VStem: 35 97<119.459 307.25> 270 60<-125.007 -65.5289>
LayerCount: 2
Fore
SplineSet
270 -95 m 3xbc
 270 -70 219 -46 201 -46 c 1xdc
 213 -8 l 1
 102 6 35 78 35 212 c 3
 35 368 169 430 262 430 c 3
 343 430 405 387 405 364 c 7
 405 342 389 319 362 319 c 7
 330 319 317 391 249 391 c 3
 205 391 132 357 132 228 c 3
 132 127 183 29 269 29 c 3
 320 29 361 55 392 95 c 1
 418 81 l 1
 388 25 342 -4 275 -9 c 1
 270 -30 l 1
 289 -30 330 -59 330 -85 c 3
 330 -127 231 -189 195 -195 c 1
 190 -180 l 1
 221 -171 270 -132 270 -95 c 3xbc
EndSplineSet
Validated: 1
EndChar
StartChar: oslash
Encoding: 248 248 173
Width: 495
VWidth: 0
Flags: W
HStem: -10 39<196.805 313.415> 391 39<181.176 300.486> 470 20G<368 410>
VStem: 30 97<112.463 303.635> 368 97<106.322 310.484>
DStem2: 60 -50 105 -80 0.509802 0.860292<0 98.8669 180.247 462.072 538.11 624.827>
LayerCount: 2
Fore
SplineSet
105 -80 m 1
 60 -50 l 1
 109 32 l 1
 58 70 30 132 30 202 c 7
 30 358 157 430 250 430 c 7
 281 430 310 425 335 415 c 1
 380 490 l 1
 425 460 l 1
 383 388 l 1
 436 348 465 285 465 214 c 7
 465 67 373 -10 244 -10 c 7
 211 -10 182 -4 156 6 c 1
 105 -80 l 1
238 391 m 7
 194 391 127 357 127 228 c 7
 127 184 135 140 152 105 c 1
 307 367 l 1
 289 382 266 391 238 391 c 7
342 320 m 1
 186 57 l 1
 205 39 229 29 257 29 c 7
 308 29 368 70 368 188 c 7
 368 235 360 283 342 320 c 1
EndSplineSet
Validated: 1
EndChar
StartChar: oe
Encoding: 339 339 273
Width: 779
VWidth: 0
Flags: W
HStem: -10 39<199.57 313.587 535.536 666.133> 222 43<470 618.846> 235 30<597.154 663> 391 39<181.176 298.585 518.034 621.876>
VStem: 30 97<113.561 303.635> 368 99<112.708 220.521> 663 86<265 333.155>
LayerCount: 2
Fore
SplineSet
30 202 m 3xde
 30 358 157 430 250 430 c 3
 323 430 381 400 418 354 c 5
 462 409 528 430 584 430 c 3
 661 430 749 364 749 235 c 1xbe
 467 222 l 1
 467 121 514 29 590 29 c 3
 641 29 689 53 720 93 c 1
 740 81 l 1
 707 20 656 -10 578 -10 c 3
 504 -10 448 15 413 58 c 5
 374 13 315 -10 244 -10 c 3
 109 -10 30 84 30 202 c 3xde
238 391 m 3
 194 391 127 357 127 228 c 3
 127 127 171 29 257 29 c 3
 308 29 368 70 368 188 c 7
 368 287 333 391 238 391 c 3
663 265 m 1
 663 331 632 391 571 391 c 3
 532 391 482 364 470 265 c 1xde
 663 265 l 1
EndSplineSet
Validated: 1
EndChar
StartChar: afii00208
Encoding: 8213 8213 291
Width: 760
VWidth: 0
Flags: W
HStem: 200 55<79.7244 660.46>
LayerCount: 2
Fore
SplineSet
660 205 m 1
 577 205 153 205 70 200 c 1
 76 216 77 236 80 255 c 1
 161 259 586 259 670 260 c 1
 667 241 665 219 660 205 c 1
EndSplineSet
Validated: 1
EndChar
StartChar: quotereversed
Encoding: 8219 8219 281
Width: 270
VWidth: 0
Flags: W
HStem: 419 220
VStem: 50 79<519.365 608.137>
LayerCount: 2
Fore
SplineSet
150 586 m 7
 150 570 129 558 129 538 c 7
 129 525 189 432 190 419 c 13
 158 423 l 21
 130 447 50 521 50 579 c 7
 50 612 72 639 83 639 c 7
 96 639 150 614 150 586 c 7
EndSplineSet
Validated: 1
EndChar
StartChar: uni2023
Encoding: 8227 8227 269
Width: 260
VWidth: 0
Flags: W
HStem: 157 92<80.8454 142.811>
VStem: 80 90<182.212 223.788>
LayerCount: 2
Fore
SplineSet
95 249 m 7
 112 249 170 215 170 203 c 3
 170 191 110 157 95 157 c 7
 84 157 80 162 80 203 c 3
 80 244 83 249 95 249 c 7
EndSplineSet
Validated: 1
EndChar
StartChar: uni204B
Encoding: 8267 8267 285
Width: 527
VWidth: 0
Flags: W
HStem: -4 28<271.023 336.182> 634 16G<40 53.5 201 381>
VStem: 100 62<29.4214 620.579> 201 301<370.21 553.706> 201 62<33.1309 268>
LayerCount: 2
Fore
SplineSet
162 0 m 5xe0
 125 0 67 -1 40 -4 c 5
 40 8 42 14 46 18 c 4
 58 30 100 26 100 47 c 6
 100 603 l 6
 100 624 58 620 46 632 c 4
 42 636 40 642 40 654 c 5
 67 650 125 650 162 650 c 13
 162 0 l 5xe0
201 650 m 13xe8
 320 650 l 6
 442 650 502 542 502 479 c 7xf0
 502 354 439 268 282 268 c 6
 263 268 l 5
 263 47 l 6
 263 29 328 29 333 24 c 4
 336 21 337 19 337 -4 c 5
 315 -1 238 0 201 0 c 5
 201 650 l 13xe8
EndSplineSet
Validated: 1
EndChar
StartChar: uni2070
Encoding: 8304 8304 267
Width: 214
VWidth: 0
Flags: W
HStem: 425 30<81.3708 134.61> 650 30<80.276 134.507>
VStem: 15 50<463.38 632.578> 149 50<462.402 639.606>
LayerCount: 2
Fore
SplineSet
107 650 m 7
 69 650 65 598 65 548 c 3
 65 511 70.875 455 107 455 c 7
 145.012695312 455 149 506 149 548 c 7
 149 600.009614496 146.05124838 650 107 650 c 7
15 548 m 3
 15 617 53.9905668772 680 107 680 c 7
 170.007936008 680 199 620.443081105 199 548 c 7
 199 480 172.0078125 425 107 425 c 7
 41 425 15 481 15 548 c 3
EndSplineSet
Validated: 1
EndChar
StartChar: uni2074
Encoding: 8308 8308 195
Width: 214
VWidth: 0
Flags: W
HStem: 425 21G<119 168> 490 35<58 121 166 196.668>
VStem: 121 45<425.348 490 525 608>
LayerCount: 2
Fore
SplineSet
121 608 m 1
 94 575 80 558 58 525 c 1
 121 525 l 1
 121 608 l 1
204 532 m 1
 197 495 l 1
 190 492 177 490 164 490 c 1
 164 466 166 432 168 425 c 1
 119 425 l 1
 121 431 123 471 123 490 c 1
 10 490 l 1
 50 553 76 600 120 659 c 1
 168 680 l 1
 167 671 166 667 166 654 c 2
 166 525 l 1
 187 525 191 526 204 532 c 1
EndSplineSet
Validated: 1
EndChar
StartChar: uni2075
Encoding: 8309 8309 262
Width: 162
VWidth: 0
Flags: W
HStem: 420 23<15 68.1339> 625 45<51.7344 147>
VStem: 96 55<459.723 544.51>
DStem2: 19 567 49 589 0.208881 0.977941<27.7811 67.1641>
LayerCount: 2
Fore
SplineSet
15 443 m 7
 76 443 96 467.986328125 96 505 c 3
 96 543 52 561 19 567 c 9
 41 670 l 17
 134 670 l 2
 152 670 153 672 157 674 c 9
 147 625 l 25
 69 625 l 18
 61 625 56 624 54 615 c 2
 49 589 l 1
 75 586 151 569.008771255 151 512 c 3
 151 447.96875 81 420 10 420 c 4
 15 443 l 7
EndSplineSet
Validated: 1
EndChar
StartChar: uni2076
Encoding: 8310 8310 263
Width: 203
VWidth: 0
Flags: W
HStem: 425 25<78.8294 126.471> 545 25<99 124.666>
VStem: 15 50<454.521 583.181> 138 50<454.125 538.636>
LayerCount: 2
Fore
SplineSet
99 570 m 7
 146 570 188 548 188 503 c 7
 188 452 143 425 96 425 c 7
 66 425 15 451 15 513 c 7
 15 588 93 654 130 676 c 13
 159 657 l 21
 114 627 65 578 65 511 c 7
 65 484 76 450 101 450 c 7
 117 450 138 462 138 497 c 7
 138 533 115 545 89 545 c 4
 99 570 l 7
EndSplineSet
Validated: 1
EndChar
StartChar: uni2077
Encoding: 8311 8311 264
Width: 181
VWidth: 0
Flags: W
HStem: 420 21G<44 97.5> 625 45<37.5066 129>
VStem: 44 50<420 460.44>
LayerCount: 2
Fore
SplineSet
44 420 m 17
 74 471 101 553 129 625 c 1
 68 625 l 2
 52 625 40 614 34 595 c 1
 32 595 18 595 15 596 c 1
 24 664 l 1
 30 667 39 670 54 670 c 2
 181 670 l 1
 137 576 101 458 94 420 c 9
 44 420 l 17
EndSplineSet
Validated: 1
EndChar
StartChar: uni2078
Encoding: 8312 8312 265
Width: 193
VWidth: 0
Flags: MW
HStem: 424 30<67.8007 121.638> 650 30<74.5033 123.404>
VStem: 15 45<456.793 537.787> 128 55<456.75 532.336>
LayerCount: 2
Fore
SplineSet
82 546 m 1
 66 534 60 515 60 492 c 3
 60 469 77 454 94 454 c 3
 111 454 128 465.978271134 128 489 c 3
 128 517 108 537 82 546 c 1
65 562 m 1
 48 573 28 599 28 622 c 3
 28 653 64 680 103 680 c 3
 138 680 163 650 163 629 c 3
 163 610 148 584 126 570 c 1
 152 563 183 532 183 495 c 3
 183 457 139.01171875 424 98 424 c 3
 54 424 15 455 15 487 c 3
 15 517 41 548 65 562 c 1
111 580 m 1
 123 594 128 606 128 620 c 3
 128 640 110 650 97 650 c 3
 83 650 72 641 72 623 c 3
 72 607 88 586 111 580 c 1
EndSplineSet
Validated: 1
EndChar
StartChar: uni207A
Encoding: 8314 8314 298
Width: 245
VWidth: 0
Flags: W
HStem: 528 40<29.7244 101 142 215.287> 635 20G<136.5 144.5>
VStem: 102 40<440 528 568 650.449>
LayerCount: 2
Fore
SplineSet
141 528 m 1
 140 486 140 485 140 440 c 1
 125 440 120 440 100 435 c 1
 100 482 100 485 101 528 c 1
 59 527 66 526 20 525 c 1
 26 541 27 547 30 565 c 1
 72 567 62 567 102 568 c 1
 103 607 104 607 105 650 c 1
 126 655 128 653 145 655 c 1
 144 611 143 609 142 568 c 1
 182 568 183 569 225 570 c 1
 223 552 218 548 215 530 c 1
 176 529 178 528 141 528 c 1
EndSplineSet
EndChar
StartChar: uni207B
Encoding: 8315 8315 299
Width: 210
VWidth: 0
Flags: W
HStem: 530 45<29.73 180.619>
VStem: 20 170
LayerCount: 2
Fore
SplineSet
180 535 m 1
 96.666015625 534.657226562 103.333007812 535.103515625 20 530 c 1
 26.197265625 546.234375 27.0576171875 556.379882812 30 575 c 5
 111.338867188 578.700195312 106.188476562 578.8203125 190 580 c 5
 186.775390625 561.26953125 184.504882812 549.0390625 180 535 c 1
EndSplineSet
EndChar
StartChar: uni207D
Encoding: 8317 8317 301
Width: 124
VWidth: 0
Flags: W
HStem: 391 313
VStem: 15 41<473.872 624.988>
LayerCount: 2
Fore
SplineSet
102 704 m 9
 119 683 l 17
 84 655 56 606 56 551 c 3
 56 497 81 444 119 412 c 9
 99 391 l 17
 76 406 15 478 15 548 c 3
 15 614 58 669 102 704 c 9
EndSplineSet
EndChar
StartChar: uni207E
Encoding: 8318 8318 302
Width: 124
VWidth: 0
Flags: W
HStem: 391 313
VStem: 68 41<473.872 624.988>
LayerCount: 2
Fore
SplineSet
22 704 m 17
 66 669 109 614 109 548 c 3
 109 478 48 406 25 391 c 9
 5 412 l 17
 43 444 68 497 68 551 c 3
 68 606 40 655 5 683 c 9
 22 704 l 17
EndSplineSet
EndChar
StartChar: notequal
Encoding: 8800 8800 218
Width: 440
VWidth: 0
HStem: 144 55<74.7244 160 244 355.193> 267 55<84.8124 196 276 365.46>
VStem: 65 310
DStem2: 128 38 192 18 0.259129 0.965843<-3.15368 110.671 185.56 238.799 313.616 421.767>
LayerCount: 2
Fore
SplineSet
192 18 m 5
 170 22 146 26 128 38 c 5
 141 83 152 117 160 144 c 5
 128 143 96 143 65 141 c 5
 71 159 72 178 75 196 c 5
 108 197 142 198 176 199 c 5
 184 225 190 243 196 267 c 5
 155 266 115 265 75 264 c 5
 81 281 83 300 85 319 c 5
 127 321 168 322 210 322 c 5
 217 352 226 391 238 448 c 5
 254 440 276 432 302 428 c 5
 291 383 283 350 276 323 c 5
 309 323 342 323 375 324 c 5
 372 306 370 287 365 269 c 5
 331 268 296 268 262 268 c 5
 255 242 251 222 244 199 c 5
 285 199 325 200 365 201 c 5
 361 183 357 164 355 146 c 5
 313 145 270 145 228 145 c 5
 219 115 208 75 192 18 c 5
EndSplineSet
Validated: 1
EndChar
